<svg width="188" height="139" viewBox="0 0 188 139" fill="none" xmlns="http://www.w3.org/2000/svg">
<path d="M11.6486 127.051C11.0086 127.051 10.4886 126.904 10.0886 126.611C9.71524 126.318 9.48857 125.931 9.40857 125.451C9.32857 124.944 9.42191 124.384 9.68857 123.771L20.2486 100.371C20.5952 99.5975 21.0086 99.0508 21.4886 98.7308C21.9952 98.3842 22.5686 98.2108 23.2086 98.2108C23.8219 98.2108 24.3686 98.3842 24.8486 98.7308C25.3552 99.0508 25.7819 99.5975 26.1286 100.371L36.7286 123.771C37.0219 124.384 37.1286 124.944 37.0486 125.451C36.9686 125.958 36.7419 126.358 36.3686 126.651C35.9952 126.918 35.5019 127.051 34.8886 127.051C34.1419 127.051 33.5552 126.878 33.1286 126.531C32.7286 126.158 32.3686 125.598 32.0486 124.851L29.4486 118.811L31.6086 120.211H14.7286L16.8886 118.811L14.3286 124.851C13.9819 125.624 13.6219 126.184 13.2486 126.531C12.8752 126.878 12.3419 127.051 11.6486 127.051ZM23.1286 104.091L17.5286 117.411L16.4886 116.131H29.8486L28.8486 117.411L23.2086 104.091H23.1286ZM49.4989 127.131C47.4456 127.131 45.6589 126.718 44.1389 125.891C42.6189 125.038 41.4456 123.838 40.6189 122.291C39.7922 120.744 39.3789 118.931 39.3789 116.851C39.3789 115.278 39.6056 113.878 40.0589 112.651C40.5389 111.398 41.2189 110.344 42.0989 109.491C42.9789 108.611 44.0456 107.944 45.2989 107.491C46.5522 107.011 47.9522 106.771 49.4989 106.771C50.3789 106.771 51.3256 106.891 52.3389 107.131C53.3789 107.371 54.3522 107.771 55.2589 108.331C55.6856 108.598 55.9656 108.918 56.0989 109.291C56.2322 109.664 56.2589 110.051 56.1789 110.451C56.0989 110.824 55.9256 111.158 55.6589 111.451C55.4189 111.718 55.1122 111.891 54.7389 111.971C54.3656 112.024 53.9522 111.931 53.4989 111.691C52.9122 111.344 52.3122 111.091 51.6989 110.931C51.0856 110.744 50.4989 110.651 49.9389 110.651C49.0589 110.651 48.2856 110.798 47.6189 111.091C46.9522 111.358 46.3789 111.758 45.8989 112.291C45.4456 112.798 45.0989 113.438 44.8589 114.211C44.6189 114.984 44.4989 115.878 44.4989 116.891C44.4989 118.864 44.9656 120.424 45.8989 121.571C46.8589 122.691 48.2056 123.251 49.9389 123.251C50.4989 123.251 51.0722 123.171 51.6589 123.011C52.2722 122.851 52.8856 122.598 53.4989 122.251C53.9522 122.011 54.3522 121.931 54.6989 122.011C55.0722 122.091 55.3789 122.278 55.6189 122.571C55.8589 122.838 56.0056 123.171 56.0589 123.571C56.1122 123.944 56.0589 124.318 55.8989 124.691C55.7656 125.064 55.4989 125.371 55.0989 125.611C54.2189 126.144 53.2856 126.531 52.2989 126.771C51.3122 127.011 50.3789 127.131 49.4989 127.131ZM65.6489 127.131C64.2356 127.131 62.9689 126.864 61.8489 126.331C60.7556 125.771 59.8889 125.024 59.2489 124.091C58.6356 123.158 58.3289 122.104 58.3289 120.931C58.3289 119.491 58.7022 118.358 59.4489 117.531C60.1956 116.678 61.4089 116.064 63.0889 115.691C64.7689 115.318 67.0222 115.131 69.8489 115.131H71.8489V118.011H69.8889C68.2356 118.011 66.9156 118.091 65.9289 118.251C64.9422 118.411 64.2356 118.691 63.8089 119.091C63.4089 119.464 63.2089 119.998 63.2089 120.691C63.2089 121.571 63.5156 122.291 64.1289 122.851C64.7422 123.411 65.5956 123.691 66.6889 123.691C67.5689 123.691 68.3422 123.491 69.0089 123.091C69.7022 122.664 70.2489 122.091 70.6489 121.371C71.0489 120.651 71.2489 119.824 71.2489 118.891V114.291C71.2489 112.958 70.9556 111.998 70.3689 111.411C69.7822 110.824 68.7956 110.531 67.4089 110.531C66.6356 110.531 65.7956 110.624 64.8889 110.811C64.0089 110.998 63.0756 111.318 62.0889 111.771C61.5822 112.011 61.1289 112.078 60.7289 111.971C60.3556 111.864 60.0622 111.651 59.8489 111.331C59.6356 110.984 59.5289 110.611 59.5289 110.211C59.5289 109.811 59.6356 109.424 59.8489 109.051C60.0622 108.651 60.4222 108.358 60.9289 108.171C62.1556 107.664 63.3289 107.304 64.4489 107.091C65.5956 106.878 66.6356 106.771 67.5689 106.771C69.4889 106.771 71.0622 107.064 72.2889 107.651C73.5422 108.238 74.4756 109.131 75.0889 110.331C75.7022 111.504 76.0089 113.024 76.0089 114.891V124.491C76.0089 125.318 75.8089 125.958 75.4089 126.411C75.0089 126.838 74.4356 127.051 73.6889 127.051C72.9422 127.051 72.3556 126.838 71.9289 126.411C71.5289 125.958 71.3289 125.318 71.3289 124.491V122.571H71.6489C71.4622 123.504 71.0889 124.318 70.5289 125.011C69.9956 125.678 69.3156 126.198 68.4889 126.571C67.6622 126.944 66.7156 127.131 65.6489 127.131ZM88.6039 127.131C86.8972 127.131 85.3906 126.718 84.0839 125.891C82.8039 125.064 81.8039 123.891 81.0839 122.371C80.3639 120.824 80.0039 119.011 80.0039 116.931C80.0039 114.824 80.3639 113.024 81.0839 111.531C81.8039 110.011 82.8039 108.838 84.0839 108.011C85.3906 107.184 86.8972 106.771 88.6039 106.771C90.2306 106.771 91.6439 107.171 92.8439 107.971C94.0706 108.771 94.8972 109.824 95.3239 111.131H94.8839V100.731C94.8839 99.9042 95.0972 99.2775 95.5239 98.8508C95.9506 98.4242 96.5639 98.2108 97.3639 98.2108C98.1639 98.2108 98.7772 98.4242 99.2039 98.8508C99.6572 99.2775 99.8839 99.9042 99.8839 100.731V124.491C99.8839 125.318 99.6706 125.958 99.2439 126.411C98.8172 126.838 98.2039 127.051 97.4039 127.051C96.6039 127.051 95.9906 126.838 95.5639 126.411C95.1372 125.958 94.9239 125.318 94.9239 124.491V121.371L95.3639 122.571C94.9639 123.958 94.1506 125.064 92.9239 125.891C91.6972 126.718 90.2572 127.131 88.6039 127.131ZM90.0039 123.331C90.9906 123.331 91.8572 123.091 92.6039 122.611C93.3506 122.131 93.9239 121.424 94.3239 120.491C94.7506 119.531 94.9639 118.344 94.9639 116.931C94.9639 114.798 94.5106 113.211 93.6039 112.171C92.6972 111.104 91.4972 110.571 90.0039 110.571C89.0172 110.571 88.1506 110.811 87.4039 111.291C86.6572 111.744 86.0706 112.451 85.6439 113.411C85.2439 114.344 85.0439 115.518 85.0439 116.931C85.0439 119.038 85.4972 120.638 86.4039 121.731C87.3106 122.798 88.5106 123.331 90.0039 123.331ZM114.708 127.131C112.495 127.131 110.588 126.718 108.988 125.891C107.388 125.064 106.148 123.891 105.268 122.371C104.415 120.851 103.988 119.051 103.988 116.971C103.988 114.944 104.402 113.171 105.228 111.651C106.082 110.131 107.242 108.944 108.708 108.091C110.202 107.211 111.895 106.771 113.788 106.771C115.175 106.771 116.415 106.998 117.508 107.451C118.628 107.904 119.575 108.558 120.348 109.411C121.148 110.264 121.748 111.304 122.148 112.531C122.575 113.731 122.788 115.091 122.788 116.611C122.788 117.091 122.615 117.464 122.268 117.731C121.948 117.971 121.482 118.091 120.868 118.091H108.028V115.211H119.268L118.628 115.811C118.628 114.584 118.442 113.558 118.068 112.731C117.722 111.904 117.202 111.278 116.508 110.851C115.842 110.398 115.002 110.171 113.988 110.171C112.868 110.171 111.908 110.438 111.108 110.971C110.335 111.478 109.735 112.211 109.308 113.171C108.908 114.104 108.708 115.224 108.708 116.531V116.811C108.708 118.998 109.215 120.638 110.228 121.731C111.268 122.798 112.788 123.331 114.788 123.331C115.482 123.331 116.255 123.251 117.108 123.091C117.988 122.904 118.815 122.598 119.588 122.171C120.148 121.851 120.642 121.718 121.068 121.771C121.495 121.798 121.828 121.944 122.068 122.211C122.335 122.478 122.495 122.811 122.548 123.211C122.602 123.584 122.522 123.971 122.308 124.371C122.122 124.771 121.788 125.118 121.308 125.411C120.375 125.998 119.295 126.438 118.068 126.731C116.868 126.998 115.748 127.131 114.708 127.131ZM129.628 127.051C128.881 127.051 128.308 126.838 127.908 126.411C127.508 125.984 127.308 125.398 127.308 124.651V100.611C127.308 99.8375 127.521 99.2508 127.948 98.8508C128.375 98.4242 128.961 98.2108 129.708 98.2108C130.375 98.2108 130.895 98.3442 131.268 98.6108C131.668 98.8508 132.028 99.2775 132.348 99.8908L142.228 118.171H140.948L150.828 99.8908C151.148 99.2775 151.495 98.8508 151.868 98.6108C152.241 98.3442 152.761 98.2108 153.428 98.2108C154.175 98.2108 154.748 98.4242 155.148 98.8508C155.548 99.2508 155.748 99.8375 155.748 100.611V124.651C155.748 125.398 155.548 125.984 155.148 126.411C154.775 126.838 154.201 127.051 153.428 127.051C152.681 127.051 152.108 126.838 151.708 126.411C151.308 125.984 151.108 125.398 151.108 124.651V106.131H151.988L143.588 121.451C143.321 121.904 143.041 122.238 142.748 122.451C142.455 122.664 142.055 122.771 141.548 122.771C141.041 122.771 140.628 122.664 140.308 122.451C139.988 122.211 139.708 121.878 139.468 121.451L130.988 106.091H131.948V124.651C131.948 125.398 131.748 125.984 131.348 126.411C130.975 126.838 130.401 127.051 129.628 127.051ZM171.115 127.131C168.901 127.131 166.995 126.718 165.395 125.891C163.795 125.064 162.555 123.891 161.675 122.371C160.821 120.851 160.395 119.051 160.395 116.971C160.395 114.944 160.808 113.171 161.635 111.651C162.488 110.131 163.648 108.944 165.115 108.091C166.608 107.211 168.301 106.771 170.195 106.771C171.581 106.771 172.821 106.998 173.915 107.451C175.035 107.904 175.981 108.558 176.755 109.411C177.555 110.264 178.155 111.304 178.555 112.531C178.981 113.731 179.195 115.091 179.195 116.611C179.195 117.091 179.021 117.464 178.675 117.731C178.355 117.971 177.888 118.091 177.275 118.091H164.435V115.211H175.675L175.035 115.811C175.035 114.584 174.848 113.558 174.475 112.731C174.128 111.904 173.608 111.278 172.915 110.851C172.248 110.398 171.408 110.171 170.395 110.171C169.275 110.171 168.315 110.438 167.515 110.971C166.741 111.478 166.141 112.211 165.715 113.171C165.315 114.104 165.115 115.224 165.115 116.531V116.811C165.115 118.998 165.621 120.638 166.635 121.731C167.675 122.798 169.195 123.331 171.195 123.331C171.888 123.331 172.661 123.251 173.515 123.091C174.395 122.904 175.221 122.598 175.995 122.171C176.555 121.851 177.048 121.718 177.475 121.771C177.901 121.798 178.235 121.944 178.475 122.211C178.741 122.478 178.901 122.811 178.955 123.211C179.008 123.584 178.928 123.971 178.715 124.371C178.528 124.771 178.195 125.118 177.715 125.411C176.781 125.998 175.701 126.438 174.475 126.731C173.275 126.998 172.155 127.131 171.115 127.131Z" fill="url(#paint0_linear_79_10270)"/>
<path fill-rule="evenodd" clip-rule="evenodd" d="M150.341 12.6815C140.944 7.56049 131.548 5 122.152 5C108.057 5 103.357 7.56519 93.9628 12.6815V82.5195C103.359 77.8213 112.755 75.4723 122.152 75.4723C136.246 75.4723 140.947 77.819 150.341 82.5195V12.6815Z" stroke="url(#paint1_linear_79_10270)" stroke-width="10" stroke-linecap="round" stroke-linejoin="round"/>
<path d="M136.641 21.1242C131.816 19.7711 126.986 19.0946 122.152 19.0946C114.9 19.0946 112.497 19.7711 107.663 21.1242M136.641 35.2187C131.816 33.8656 126.986 33.1891 122.152 33.1891C114.9 33.1891 112.497 33.8656 107.663 35.2187M136.641 49.3131C131.816 47.96 126.986 47.2835 122.152 47.2835C114.9 47.2835 112.497 47.96 107.663 49.3131M136.641 63.4076C131.816 62.0545 126.986 61.378 122.152 61.378C114.9 61.378 112.497 62.0545 107.663 63.4076M80.2633 21.1242C75.4383 19.7711 70.6086 19.0946 65.7742 19.0946C58.5226 19.0946 56.1195 19.7711 51.2851 21.1242M80.2633 35.2187C75.4383 33.8656 70.6086 33.1891 65.7742 33.1891C58.5226 33.1891 56.1195 33.8656 51.2851 35.2187M80.2633 49.3131C75.4383 47.96 70.6086 47.2835 65.7742 47.2835C58.5226 47.2835 56.1195 47.96 51.2851 49.3131M80.2633 63.4076C75.4383 62.0545 70.6086 61.378 65.7742 61.378C58.5226 61.378 56.1195 62.0545 51.2851 63.4076" stroke="#94A2B7" stroke-width="7" stroke-linecap="round" stroke-linejoin="round"/>
<path fill-rule="evenodd" clip-rule="evenodd" d="M93.9633 12.6815C84.567 7.56049 75.1707 5 65.7744 5C51.68 5 46.9795 7.56519 37.5855 12.6815V82.5195C46.9818 77.8213 56.3781 75.4723 65.7744 75.4723C79.8689 75.4723 84.5694 77.819 93.9633 82.5195V12.6815Z" stroke="url(#paint2_linear_79_10270)" stroke-width="10" stroke-linecap="round" stroke-linejoin="round"/>
<defs>
<linearGradient id="paint0_linear_79_10270" x1="102.345" y1="93.1353" x2="181.291" y2="171.315" gradientUnits="userSpaceOnUse">
<stop stop-color="#006ACB"/>
<stop offset="1" stop-color="#003465"/>
</linearGradient>
<linearGradient id="paint1_linear_79_10270" x1="122.152" y1="5" x2="122.152" y2="82.5195" gradientUnits="userSpaceOnUse">
<stop stop-color="#006ACB"/>
<stop offset="1" stop-color="#003465"/>
</linearGradient>
<linearGradient id="paint2_linear_79_10270" x1="65.7744" y1="5" x2="65.7744" y2="82.5195" gradientUnits="userSpaceOnUse">
<stop stop-color="#006ACB"/>
<stop offset="1" stop-color="#003465"/>
</linearGradient>
</defs>
</svg>
