<svg width="216" height="158" viewBox="0 0 216 158" fill="none" xmlns="http://www.w3.org/2000/svg">
<path d="M4.2 140.4C3.4 140.4 2.75 140.217 2.25 139.85C1.78333 139.483 1.5 139 1.4 138.4C1.3 137.767 1.41667 137.067 1.75 136.3L14.95 107.05C15.3833 106.083 15.9 105.4 16.5 105C17.1333 104.567 17.85 104.35 18.65 104.35C19.4167 104.35 20.1 104.567 20.7 105C21.3333 105.4 21.8667 106.083 22.3 107.05L35.55 136.3C35.9167 137.067 36.05 137.767 35.95 138.4C35.85 139.033 35.5667 139.533 35.1 139.9C34.6333 140.233 34.0167 140.4 33.25 140.4C32.3167 140.4 31.5833 140.183 31.05 139.75C30.55 139.283 30.1 138.583 29.7 137.65L26.45 130.1L29.15 131.85H8.05L10.75 130.1L7.55 137.65C7.11667 138.617 6.66667 139.317 6.2 139.75C5.73333 140.183 5.06667 140.4 4.2 140.4ZM18.55 111.7L11.55 128.35L10.25 126.75H26.95L25.7 128.35L18.65 111.7H18.55ZM51.5129 140.5C48.9462 140.5 46.7129 139.983 44.8129 138.95C42.9129 137.883 41.4462 136.383 40.4129 134.45C39.3796 132.517 38.8629 130.25 38.8629 127.65C38.8629 125.683 39.1462 123.933 39.7129 122.4C40.3129 120.833 41.1629 119.517 42.2629 118.45C43.3629 117.35 44.6962 116.517 46.2629 115.95C47.8296 115.35 49.5796 115.05 51.5129 115.05C52.6129 115.05 53.7962 115.2 55.0629 115.5C56.3629 115.8 57.5796 116.3 58.7129 117C59.2462 117.333 59.5962 117.733 59.7629 118.2C59.9296 118.667 59.9629 119.15 59.8629 119.65C59.7629 120.117 59.5462 120.533 59.2129 120.9C58.9129 121.233 58.5296 121.45 58.0629 121.55C57.5962 121.617 57.0796 121.5 56.5129 121.2C55.7796 120.767 55.0296 120.45 54.2629 120.25C53.4962 120.017 52.7629 119.9 52.0629 119.9C50.9629 119.9 49.9962 120.083 49.1629 120.45C48.3296 120.783 47.6129 121.283 47.0129 121.95C46.4462 122.583 46.0129 123.383 45.7129 124.35C45.4129 125.317 45.2629 126.433 45.2629 127.7C45.2629 130.167 45.8462 132.117 47.0129 133.55C48.2129 134.95 49.8962 135.65 52.0629 135.65C52.7629 135.65 53.4796 135.55 54.2129 135.35C54.9796 135.15 55.7462 134.833 56.5129 134.4C57.0796 134.1 57.5796 134 58.0129 134.1C58.4796 134.2 58.8629 134.433 59.1629 134.8C59.4629 135.133 59.6462 135.55 59.7129 136.05C59.7796 136.517 59.7129 136.983 59.5129 137.45C59.3462 137.917 59.0129 138.3 58.5129 138.6C57.4129 139.267 56.2462 139.75 55.0129 140.05C53.7796 140.35 52.6129 140.5 51.5129 140.5ZM71.7004 140.5C69.9337 140.5 68.3504 140.167 66.9504 139.5C65.5837 138.8 64.5004 137.867 63.7004 136.7C62.9337 135.533 62.5504 134.217 62.5504 132.75C62.5504 130.95 63.0171 129.533 63.9504 128.5C64.8837 127.433 66.4004 126.667 68.5004 126.2C70.6004 125.733 73.4171 125.5 76.9504 125.5H79.4504V129.1H77.0004C74.9337 129.1 73.2837 129.2 72.0504 129.4C70.8171 129.6 69.9337 129.95 69.4004 130.45C68.9004 130.917 68.6504 131.583 68.6504 132.45C68.6504 133.55 69.0337 134.45 69.8004 135.15C70.5671 135.85 71.6337 136.2 73.0004 136.2C74.1004 136.2 75.0671 135.95 75.9004 135.45C76.7671 134.917 77.4504 134.2 77.9504 133.3C78.4504 132.4 78.7004 131.367 78.7004 130.2V124.45C78.7004 122.783 78.3337 121.583 77.6004 120.85C76.8671 120.117 75.6337 119.75 73.9004 119.75C72.9337 119.75 71.8837 119.867 70.7504 120.1C69.6504 120.333 68.4837 120.733 67.2504 121.3C66.6171 121.6 66.0504 121.683 65.5504 121.55C65.0837 121.417 64.7171 121.15 64.4504 120.75C64.1837 120.317 64.0504 119.85 64.0504 119.35C64.0504 118.85 64.1837 118.367 64.4504 117.9C64.7171 117.4 65.1671 117.033 65.8004 116.8C67.3337 116.167 68.8004 115.717 70.2004 115.45C71.6337 115.183 72.9337 115.05 74.1004 115.05C76.5004 115.05 78.4671 115.417 80.0004 116.15C81.5671 116.883 82.7337 118 83.5004 119.5C84.2671 120.967 84.6504 122.867 84.6504 125.2V137.2C84.6504 138.233 84.4004 139.033 83.9004 139.6C83.4004 140.133 82.6837 140.4 81.7504 140.4C80.8171 140.4 80.0837 140.133 79.5504 139.6C79.0504 139.033 78.8004 138.233 78.8004 137.2V134.8H79.2004C78.9671 135.967 78.5004 136.983 77.8004 137.85C77.1337 138.683 76.2837 139.333 75.2504 139.8C74.2171 140.267 73.0337 140.5 71.7004 140.5ZM100.394 140.5C98.2608 140.5 96.3775 139.983 94.7441 138.95C93.1441 137.917 91.8941 136.45 90.9941 134.55C90.0941 132.617 89.6441 130.35 89.6441 127.75C89.6441 125.117 90.0941 122.867 90.9941 121C91.8941 119.1 93.1441 117.633 94.7441 116.6C96.3775 115.567 98.2608 115.05 100.394 115.05C102.427 115.05 104.194 115.55 105.694 116.55C107.227 117.55 108.261 118.867 108.794 120.5H108.244V107.5C108.244 106.467 108.511 105.683 109.044 105.15C109.577 104.617 110.344 104.35 111.344 104.35C112.344 104.35 113.111 104.617 113.644 105.15C114.211 105.683 114.494 106.467 114.494 107.5V137.2C114.494 138.233 114.227 139.033 113.694 139.6C113.161 140.133 112.394 140.4 111.394 140.4C110.394 140.4 109.627 140.133 109.094 139.6C108.561 139.033 108.294 138.233 108.294 137.2V133.3L108.844 134.8C108.344 136.533 107.327 137.917 105.794 138.95C104.261 139.983 102.461 140.5 100.394 140.5ZM102.144 135.75C103.377 135.75 104.461 135.45 105.394 134.85C106.327 134.25 107.044 133.367 107.544 132.2C108.077 131 108.344 129.517 108.344 127.75C108.344 125.083 107.777 123.1 106.644 121.8C105.511 120.467 104.011 119.8 102.144 119.8C100.911 119.8 99.8275 120.1 98.8941 120.7C97.9608 121.267 97.2275 122.15 96.6941 123.35C96.1941 124.517 95.9441 125.983 95.9441 127.75C95.9441 130.383 96.5108 132.383 97.6441 133.75C98.7775 135.083 100.277 135.75 102.144 135.75ZM133.025 140.5C130.258 140.5 127.875 139.983 125.875 138.95C123.875 137.917 122.325 136.45 121.225 134.55C120.158 132.65 119.625 130.4 119.625 127.8C119.625 125.267 120.141 123.05 121.175 121.15C122.241 119.25 123.691 117.767 125.525 116.7C127.391 115.6 129.508 115.05 131.875 115.05C133.608 115.05 135.158 115.333 136.525 115.9C137.925 116.467 139.108 117.283 140.075 118.35C141.075 119.417 141.825 120.717 142.325 122.25C142.858 123.75 143.125 125.45 143.125 127.35C143.125 127.95 142.908 128.417 142.475 128.75C142.075 129.05 141.491 129.2 140.725 129.2H124.675V125.6H138.725L137.925 126.35C137.925 124.817 137.691 123.533 137.225 122.5C136.791 121.467 136.141 120.683 135.275 120.15C134.441 119.583 133.391 119.3 132.125 119.3C130.725 119.3 129.525 119.633 128.525 120.3C127.558 120.933 126.808 121.85 126.275 123.05C125.775 124.217 125.525 125.617 125.525 127.25V127.6C125.525 130.333 126.158 132.383 127.425 133.75C128.725 135.083 130.625 135.75 133.125 135.75C133.991 135.75 134.958 135.65 136.025 135.45C137.125 135.217 138.158 134.833 139.125 134.3C139.825 133.9 140.441 133.733 140.975 133.8C141.508 133.833 141.925 134.017 142.225 134.35C142.558 134.683 142.758 135.1 142.825 135.6C142.891 136.067 142.791 136.55 142.525 137.05C142.291 137.55 141.875 137.983 141.275 138.35C140.108 139.083 138.758 139.633 137.225 140C135.725 140.333 134.325 140.5 133.025 140.5ZM151.674 140.4C150.741 140.4 150.024 140.133 149.524 139.6C149.024 139.067 148.774 138.333 148.774 137.4V107.35C148.774 106.383 149.041 105.65 149.574 105.15C150.108 104.617 150.841 104.35 151.774 104.35C152.608 104.35 153.258 104.517 153.724 104.85C154.224 105.15 154.674 105.683 155.074 106.45L167.424 129.3H165.824L178.174 106.45C178.574 105.683 179.008 105.15 179.474 104.85C179.941 104.517 180.591 104.35 181.424 104.35C182.358 104.35 183.074 104.617 183.574 105.15C184.074 105.65 184.324 106.383 184.324 107.35V137.4C184.324 138.333 184.074 139.067 183.574 139.6C183.108 140.133 182.391 140.4 181.424 140.4C180.491 140.4 179.774 140.133 179.274 139.6C178.774 139.067 178.524 138.333 178.524 137.4V114.25H179.624L169.124 133.4C168.791 133.967 168.441 134.383 168.074 134.65C167.708 134.917 167.208 135.05 166.574 135.05C165.941 135.05 165.424 134.917 165.024 134.65C164.624 134.35 164.274 133.933 163.974 133.4L153.374 114.2H154.574V137.4C154.574 138.333 154.324 139.067 153.824 139.6C153.358 140.133 152.641 140.4 151.674 140.4ZM203.532 140.5C200.766 140.5 198.382 139.983 196.382 138.95C194.382 137.917 192.832 136.45 191.732 134.55C190.666 132.65 190.132 130.4 190.132 127.8C190.132 125.267 190.649 123.05 191.682 121.15C192.749 119.25 194.199 117.767 196.032 116.7C197.899 115.6 200.016 115.05 202.382 115.05C204.116 115.05 205.666 115.333 207.032 115.9C208.432 116.467 209.616 117.283 210.582 118.35C211.582 119.417 212.332 120.717 212.832 122.25C213.366 123.75 213.632 125.45 213.632 127.35C213.632 127.95 213.416 128.417 212.982 128.75C212.582 129.05 211.999 129.2 211.232 129.2H195.182V125.6H209.232L208.432 126.35C208.432 124.817 208.199 123.533 207.732 122.5C207.299 121.467 206.649 120.683 205.782 120.15C204.949 119.583 203.899 119.3 202.632 119.3C201.232 119.3 200.032 119.633 199.032 120.3C198.066 120.933 197.316 121.85 196.782 123.05C196.282 124.217 196.032 125.617 196.032 127.25V127.6C196.032 130.333 196.666 132.383 197.932 133.75C199.232 135.083 201.132 135.75 203.632 135.75C204.499 135.75 205.466 135.65 206.532 135.45C207.632 135.217 208.666 134.833 209.632 134.3C210.332 133.9 210.949 133.733 211.482 133.8C212.016 133.833 212.432 134.017 212.732 134.35C213.066 134.683 213.266 135.1 213.332 135.6C213.399 136.067 213.299 136.55 213.032 137.05C212.799 137.55 212.382 137.983 211.782 138.35C210.616 139.083 209.266 139.633 207.732 140C206.232 140.333 204.832 140.5 203.532 140.5Z" fill="white"/>
<path fill-rule="evenodd" clip-rule="evenodd" d="M169 13.3794C158.75 7.79314 148.5 5 138.25 5C122.875 5 117.747 7.79826 107.5 13.3794V89.5629C117.75 84.4379 128 81.8754 138.25 81.8754C153.625 81.8754 158.753 84.4353 169 89.5629V13.3794Z" stroke="white" stroke-width="10" stroke-linecap="round" stroke-linejoin="round"/>
<path d="M154.056 22.5891C148.792 21.1131 143.524 20.3751 138.25 20.3751C130.34 20.3751 127.718 21.1131 122.445 22.5891M154.056 37.9642C148.792 36.4882 143.524 35.7502 138.25 35.7502C130.34 35.7502 127.718 36.4882 122.445 37.9642M154.056 53.3392C148.792 51.8632 143.524 51.1252 138.25 51.1252C130.34 51.1252 127.718 51.8632 122.445 53.3392M154.056 68.7143C148.792 67.2383 143.524 66.5003 138.25 66.5003C130.34 66.5003 127.718 67.2383 122.445 68.7143M92.5555 22.5891C87.2921 21.1131 82.0236 20.3751 76.7499 20.3751C68.8395 20.3751 66.218 21.1131 60.9444 22.5891M92.5555 37.9642C87.2921 36.4882 82.0236 35.7502 76.7499 35.7502C68.8395 35.7502 66.218 36.4882 60.9444 37.9642M92.5555 53.3392C87.2921 51.8632 82.0236 51.1252 76.7499 51.1252C68.8395 51.1252 66.218 51.8632 60.9444 53.3392M92.5555 68.7143C87.2921 67.2383 82.0236 66.5003 76.7499 66.5003C68.8395 66.5003 66.218 67.2383 60.9444 68.7143" stroke="white" stroke-width="7" stroke-linecap="round" stroke-linejoin="round"/>
<path fill-rule="evenodd" clip-rule="evenodd" d="M107.5 13.3794C97.2502 7.79314 87.0002 5 76.7501 5C61.3751 5 56.2475 7.79826 46 13.3794V89.5629C56.25 84.4379 66.5001 81.8754 76.7501 81.8754C92.1252 81.8754 97.2528 84.4353 107.5 89.5629V13.3794Z" stroke="white" stroke-width="10" stroke-linecap="round" stroke-linejoin="round"/>
</svg>
